<svg width="388" height="191" viewBox="0 0 388 191" fill="none" xmlns="http://www.w3.org/2000/svg">
<path d="M160.95 93.2064C148.415 98.1211 134.515 89.905 132.891 76.4342L129.438 47.7702C129.436 47.7519 129.435 47.7332 129.433 47.7149C128.393 38.8831 133.112 30.4312 141.063 26.6412C141.151 26.5989 141.241 26.5582 141.331 26.5178L141.583 26.4038C141.668 26.3654 141.753 26.3273 141.839 26.2906L168.389 14.9496L168.391 14.9491C181.06 9.53884 195.379 17.8049 197.029 31.4832L197.029 31.4851L200.481 60.1484C201.578 69.2499 196.545 78.0118 188.082 81.6276L161.532 92.9688L161.328 93.0537L161.136 93.1313C161.075 93.1565 161.012 93.182 160.95 93.2064ZM146.791 74.7592C147.314 79.1034 151.799 81.7558 155.839 80.1721L156.031 80.0942L182.582 68.753C185.311 67.5867 186.936 64.7599 186.582 61.8225L183.13 33.1602C182.597 28.7473 177.977 26.0786 173.889 27.8241L147.339 39.1651L147.088 39.279C144.598 40.4657 143.091 43.0706 143.311 45.8273L143.337 46.0952L146.791 74.7592Z" fill="#2E6740"/>
<path d="M90.0186 71.057C89.0328 70.837 88.0081 70.7201 86.9561 70.7201L66.25 70.7201C59.1814 70.7201 52.3495 72.1271 45.8779 74.9408V74.9427C39.7296 77.5778 34.2414 81.2478 29.5215 85.9427C24.6982 90.6715 20.9415 96.24 18.2217 102.495C15.378 108.967 14.0001 115.843 14 122.969C14 130.013 15.337 136.827 18.0518 143.286C18.0611 143.309 18.0706 143.332 18.0801 143.354C20.7361 149.582 24.4537 155.135 29.2188 159.9C33.9482 164.629 39.447 168.354 45.6055 171.071C45.6806 171.104 45.7564 171.137 45.832 171.168C52.3135 173.892 59.1633 175.22 66.25 175.22H86.9561C88.0081 175.22 89.0329 175.103 90.0186 174.883C91.0042 175.103 92.0291 175.22 93.0811 175.22L112.461 175.22C116.376 175.22 119.915 173.611 122.456 171.021C125.058 173.675 128.649 175.22 132.453 175.22H154.077C158.967 175.22 163.489 172.669 166.024 168.516C168.579 170.063 171.281 171.391 174.115 172.509C174.168 172.53 174.222 172.551 174.275 172.572C180.906 175.093 187.995 176.24 195.367 176.24C202.739 176.24 209.829 175.093 216.46 172.572C216.509 172.553 216.558 172.534 216.607 172.514L216.62 172.509C223.09 169.958 228.864 166.291 233.726 161.429C236.882 158.272 239.532 154.743 241.688 150.89L248.168 166.568C250.333 171.804 255.44 175.22 261.106 175.22H269.368C275.034 175.22 280.142 171.804 282.307 166.568L289.556 149.03V161.22C289.556 168.952 295.824 175.22 303.556 175.22H359.452C367.184 175.22 373.452 168.952 373.452 161.22V141.84C373.452 140.233 373.179 138.688 372.681 137.25C373.18 135.812 373.452 134.268 373.452 132.66V113.28C373.452 111.672 373.179 110.128 372.681 108.69C373.179 107.252 373.452 105.707 373.452 104.1V84.72C373.452 76.9883 367.184 70.7204 359.452 70.72L303.556 70.72C303.123 70.72 302.694 70.7412 302.271 70.7796C301.847 70.7406 301.419 70.7201 300.988 70.72L280.486 70.72C274.81 70.72 269.715 74.1443 267.555 79.3548L267.355 79.8656L265.244 85.5736L263.109 79.8363C261.069 74.3554 255.836 70.7202 249.988 70.72L229.486 70.72C225.751 70.72 222.213 72.2106 219.616 74.7923C218.635 74.3434 217.636 73.923 216.619 73.5325L216.62 73.5316C209.944 70.8988 202.798 69.6995 195.367 69.6995C187.937 69.6996 180.791 70.8998 174.115 73.5325C167.605 76.032 161.808 79.7124 156.908 84.6117C156.514 85.0058 156.129 85.4068 155.75 85.8128C154.888 84.8152 153.976 83.8539 153.009 82.9349C149.015 79.0102 144.349 76.0123 139.141 73.9486L139.14 73.9495C133.859 71.7632 128.286 70.7201 122.559 70.7201L93.0811 70.7201C92.0291 70.7201 91.0043 70.837 90.0186 71.057Z" fill="#251917"/>
<path d="M8.31564e-06 122.969C8.74706e-05 114.001 1.74248 105.198 5.40431 96.8636C8.78911 89.0949 13.5175 82.0465 19.6484 76.0169L20.2139 75.4603C26.0505 69.7918 32.7803 65.3477 40.208 62.1429C40.2375 62.1298 40.2663 62.1147 40.2959 62.1019C48.5475 58.5143 57.2812 56.72 66.25 56.72V70.72C59.1814 70.72 52.3495 72.127 45.8779 74.9407V74.9427C39.7296 77.5777 34.2414 81.2478 29.5215 85.9427L29.0723 86.388C24.4642 91.0197 20.8566 96.4354 18.2217 102.495C15.378 108.967 14.0001 115.843 14 122.969C14 130.013 15.337 136.827 18.0518 143.286C18.0611 143.309 18.0706 143.332 18.0801 143.354C20.7361 149.582 24.4537 155.135 29.2188 159.9C33.9482 164.629 39.447 168.354 45.6055 171.071C45.6806 171.104 45.7564 171.136 45.832 171.168C52.3135 173.892 59.1633 175.22 66.25 175.22H86.9561C88.0081 175.22 89.0329 175.103 90.0186 174.883C91.0042 175.103 92.0291 175.22 93.0811 175.22H112.461C116.376 175.22 119.915 173.611 122.456 171.021C125.058 173.675 128.649 175.22 132.453 175.22H154.077C158.967 175.22 163.489 172.669 166.024 168.516C168.579 170.063 171.281 171.391 174.115 172.509C174.168 172.53 174.222 172.551 174.275 172.572C180.906 175.093 187.995 176.24 195.367 176.24C202.739 176.24 209.829 175.093 216.46 172.572C216.509 172.553 216.559 172.533 216.607 172.514L216.62 172.509C223.09 169.958 228.864 166.291 233.726 161.429C236.882 158.272 239.532 154.743 241.688 150.89L248.168 166.568C250.333 171.804 255.44 175.22 261.106 175.22H269.368C275.034 175.22 280.142 171.804 282.307 166.568L289.556 149.03V161.22C289.556 168.831 295.629 175.023 303.194 175.215L303.556 175.22H359.452C367.063 175.22 373.255 169.146 373.447 161.581L373.452 161.22V141.84C373.452 140.233 373.179 138.688 372.681 137.25C373.18 135.812 373.452 134.268 373.452 132.66V113.28C373.452 111.672 373.179 110.128 372.681 108.69C373.179 107.252 373.452 105.707 373.452 104.1V84.72C373.452 76.9883 367.184 70.7204 359.452 70.72H303.556V56.72H359.453C374.915 56.721 387.452 69.2557 387.452 84.72V104.101C387.452 105.66 387.321 107.193 387.073 108.69C387.321 110.186 387.452 111.72 387.452 113.279V132.661C387.452 134.22 387.321 135.754 387.073 137.25C387.321 138.747 387.452 140.281 387.452 141.84V161.22C387.452 176.683 374.916 189.219 359.453 189.22H303.556C297.119 189.22 291.19 187.046 286.461 183.395C281.663 187.093 275.689 189.22 269.368 189.22H261.106C251.547 189.22 242.784 184.36 237.677 176.554C232.802 180.313 227.447 183.288 221.757 185.532L221.747 185.535C221.707 185.551 221.58 185.602 221.438 185.657L221.437 185.658C213.002 188.865 204.195 190.24 195.367 190.24C186.816 190.24 178.284 188.949 170.091 185.952L169.299 185.658C169.147 185.6 169.002 185.542 168.978 185.533V185.532C168.777 185.452 168.578 185.369 168.378 185.288C164.123 187.817 159.202 189.22 154.077 189.22H132.453C128.983 189.22 125.604 188.576 122.461 187.374C119.355 188.564 115.982 189.22 112.461 189.22H93.0811C92.0478 189.22 91.0259 189.162 90.0186 189.051C89.0112 189.162 87.9893 189.22 86.9561 189.22H66.25C57.3804 189.22 48.679 187.551 40.4082 184.075C40.2491 184.008 40.0973 183.942 39.9551 183.879H39.9541C32.502 180.591 25.7459 176.082 19.8838 170.357L19.3193 169.799C13.4463 163.926 8.83842 157.118 5.51954 149.577L5.20216 148.846C5.17928 148.792 5.16067 148.748 5.15235 148.728C5.15016 148.723 5.14741 148.716 5.14552 148.711V148.71C1.79609 140.741 0.107131 132.362 0.00489113 123.798L8.31564e-06 122.969ZM195.367 55.6995C203.018 55.6995 210.651 56.7596 218.035 59.1702C221.585 57.5787 225.478 56.72 229.486 56.72H249.988V70.72H229.486C225.751 70.72 222.213 72.2106 219.616 74.7923C218.635 74.3434 217.636 73.923 216.619 73.5325L216.62 73.5315C209.944 70.8987 202.798 69.6995 195.367 69.6995C187.937 69.6996 180.791 70.8998 174.115 73.5325C167.605 76.032 161.808 79.7124 156.908 84.6116C156.514 85.0058 156.129 85.4067 155.75 85.8128C154.888 84.8152 153.976 83.8539 153.009 82.9349C149.015 79.0102 144.349 76.0123 139.141 73.9485L139.14 73.9495C133.859 71.7632 128.286 70.72 122.559 70.72V56.72C129.933 56.7201 137.257 58.0562 144.267 60.9222C144.277 60.9262 144.288 60.9289 144.298 60.9329C148.454 62.5797 152.38 64.6925 156.02 67.2659C160.098 64.4996 164.479 62.2362 169.097 60.4632V60.4642C177.585 57.1356 186.463 55.6996 195.367 55.6995ZM280.486 70.72C274.81 70.72 269.715 74.1443 267.555 79.3548L267.355 79.8655L265.244 85.5735L263.109 79.8362C261.133 74.5268 256.161 70.9495 250.535 70.7308L249.988 70.72V56.72C255.53 56.7202 260.795 58.3544 265.236 61.2386C269.677 58.3538 274.943 56.72 280.486 56.72V70.72ZM93.0811 70.72C92.0291 70.72 91.0043 70.837 90.0186 71.0569C89.0328 70.8369 88.0081 70.72 86.9561 70.72V56.72C87.9889 56.72 89.0105 56.7786 90.0176 56.889C91.0253 56.7784 92.0475 56.72 93.0811 56.72V70.72ZM303.556 70.72C303.123 70.72 302.694 70.7411 302.271 70.7796L301.632 70.7356C301.525 70.7306 301.418 70.7265 301.311 70.7239L300.988 70.72V56.72C301.424 56.72 301.856 56.7304 302.282 56.7503C302.698 56.7312 303.123 56.72 303.556 56.72V70.72ZM300.988 56.72V70.72H280.486V56.72H300.988ZM122.559 56.72V70.72H93.0811V56.72H122.559ZM86.9561 56.72V70.72H66.25V56.72H86.9561Z" fill="#2E6740"/>
<path d="M359.451 132.66H322.935V141.84H359.451V161.22H303.555V84.7195H359.451V104.1H322.935V113.28H359.451V132.66Z" fill="#EEEBE3"/>
<path d="M249.988 84.7195L265.288 125.826L280.486 84.7195H300.988L269.368 161.22H261.106L229.486 84.7195H249.988Z" fill="#EEEBE3"/>
<path d="M159.568 122.969C159.568 117.053 160.486 111.681 162.322 106.853C164.226 102.025 166.878 97.9115 170.278 94.5115C173.746 91.0435 177.894 88.3915 182.722 86.5555C187.55 84.6515 192.922 83.6995 198.838 83.6995C204.754 83.6995 210.126 84.6515 214.954 86.5555C219.782 88.3915 223.896 91.0435 227.296 94.5115C230.764 97.9115 233.416 102.025 235.252 106.853C237.156 111.681 238.108 117.053 238.108 122.969C238.108 128.885 237.156 134.257 235.252 139.085C233.416 143.913 230.764 148.061 227.296 151.529C223.896 154.929 219.782 157.581 214.954 159.485C210.126 161.321 204.754 162.239 198.838 162.239C192.922 162.239 187.55 161.321 182.722 159.485C177.894 157.581 173.746 154.929 170.278 151.529C166.878 148.061 164.226 143.913 162.322 139.085C160.486 134.257 159.568 128.885 159.568 122.969ZM179.254 122.969C179.254 125.893 179.696 128.579 180.58 131.027C181.532 133.407 182.858 135.481 184.558 137.249C186.326 138.949 188.4 140.275 190.78 141.227C193.228 142.111 195.914 142.553 198.838 142.553C201.83 142.553 204.516 142.111 206.896 141.227C209.276 140.275 211.316 138.949 213.016 137.249C214.784 135.481 216.11 133.407 216.994 131.027C217.946 128.579 218.422 125.893 218.422 122.969C218.422 119.977 217.946 117.291 216.994 114.911C216.11 112.531 214.784 110.491 213.016 108.791C211.316 107.023 209.276 105.697 206.896 104.813C204.516 103.861 201.83 103.385 198.838 103.385C195.914 103.385 193.228 103.861 190.78 104.813C188.4 105.697 186.326 107.023 184.558 108.791C182.858 110.491 181.532 112.531 180.58 114.911C179.696 117.291 179.254 119.977 179.254 122.969Z" fill="#EEEBE3"/>
<path d="M115.931 161.22H96.5508V84.7195H126.029C130.109 84.7195 133.917 85.4675 137.453 86.9635C141.057 88.3915 144.185 90.4315 146.837 93.0835C149.557 95.6675 151.665 98.7615 153.161 102.366C154.725 105.969 155.507 109.913 155.507 114.198C155.507 119.298 154.419 123.888 152.243 127.968C150.067 132.048 147.177 135.414 143.573 138.066L157.547 161.22H135.923L125.213 143.676H115.931V161.22ZM115.931 124.296H126.029C127.389 124.296 128.681 124.024 129.905 123.48C131.129 122.935 132.183 122.222 133.067 121.338C134.019 120.386 134.767 119.298 135.311 118.074C135.855 116.85 136.127 115.558 136.127 114.198C136.127 112.77 135.855 111.444 135.311 110.22C134.767 108.996 134.019 107.942 133.067 107.058C132.183 106.106 131.129 105.392 129.905 104.916C128.681 104.372 127.389 104.1 126.029 104.1H115.931V124.296Z" fill="#EEEBE3"/>
<path d="M90.426 161.22H69.72C64.416 161.22 59.418 160.234 54.726 158.262C50.102 156.222 46.056 153.468 42.588 150C39.12 146.532 36.4 142.486 34.428 137.862C32.456 133.17 31.47 128.205 31.47 122.969C31.47 117.666 32.49 112.702 34.53 108.078C36.57 103.386 39.324 99.3395 42.792 95.9395C46.26 92.4715 50.306 89.7515 54.93 87.7795C59.622 85.7395 64.552 84.7195 69.72 84.7195H90.426V104.1H69.72C67.136 104.1 64.688 104.61 62.376 105.63C60.064 106.582 58.058 107.908 56.358 109.608C54.658 111.308 53.298 113.314 52.278 115.626C51.326 117.938 50.85 120.385 50.85 122.969C50.85 125.553 51.326 128.002 52.278 130.314C53.298 132.626 54.658 134.632 56.358 136.332C58.058 138.032 60.064 139.392 62.376 140.412C64.688 141.364 67.136 141.84 69.72 141.84H71.046V118.074H90.426V161.22Z" fill="#EEEBE3"/>
<path d="M155.972 83.2297C150.129 85.521 143.644 81.6864 142.887 75.4036L139.187 44.7038C139.185 44.6893 139.186 44.6745 139.184 44.66C138.708 40.5477 140.907 36.6135 144.61 34.8481C144.626 34.8407 144.642 34.8334 144.658 34.8263L144.927 34.7045C144.942 34.6976 144.958 34.6906 144.973 34.684L173.409 22.5374C179.32 20.0134 186 23.8696 186.77 30.2505L186.77 30.2514L190.468 60.9506C190.98 65.1975 188.63 69.2846 184.683 70.971L156.248 83.1176L156.211 83.1324L156.005 83.2169L155.972 83.2297ZM179.54 61.3211L176.153 33.2146L150.117 44.3358L153.504 72.4414L179.54 61.3211ZM161.708 66.7207C158.399 68.134 155.191 64.5216 156.991 61.4019L156.991 61.401L168.335 41.7536C170.135 38.6359 174.867 39.6048 175.299 43.1783L175.299 43.1793L176.995 57.2563L177.019 57.5653C177.077 59.1026 176.184 60.5363 174.747 61.1504L161.708 66.7207Z" fill="#251917" stroke="#251917" stroke-width="5" stroke-linejoin="round"/>
<path fill-rule="evenodd" clip-rule="evenodd" d="M178.434 31.2554L182.132 61.9544C182.199 62.5045 181.894 63.0328 181.385 63.2505L152.949 75.3968C152.185 75.7233 151.321 75.2244 151.222 74.3992L147.523 43.6997C147.456 43.1495 147.762 42.6217 148.271 42.4041L176.707 30.2578C177.471 29.9315 178.335 30.4303 178.434 31.2554ZM170.499 43.0037C171.098 41.9663 172.673 42.2885 172.817 43.4777L174.513 57.5556C174.579 58.1057 174.275 58.6341 173.765 58.8518L160.726 64.4212C159.624 64.8918 158.557 63.6887 159.156 62.6511L170.499 43.0037Z" fill="#EEEBE3"/>
</svg>
