<svg width="108" height="108" viewBox="0 0 108 108" fill="none" xmlns="http://www.w3.org/2000/svg">
<path d="M49.9495 93.2064C37.4146 98.1211 23.5141 89.905 21.8907 76.4341L18.4373 47.7702C18.435 47.7518 18.4347 47.7332 18.4325 47.7148C17.3922 38.883 22.1117 30.4311 30.062 26.6411C30.1508 26.5988 30.2406 26.5581 30.3302 26.5177L30.5818 26.4038C30.667 26.3654 30.7526 26.3272 30.8385 26.2905L57.388 14.9495L57.3899 14.949C70.0596 9.53877 84.3783 17.8048 86.0279 31.4832L86.0284 31.4851L89.4806 60.1483C90.577 69.2499 85.5445 78.0117 77.0812 81.6275L50.5308 92.9687L50.3271 93.0536L50.1356 93.1312C50.0738 93.1565 50.0116 93.182 49.9495 93.2064ZM35.7901 74.7591C36.3137 79.1034 40.7986 81.7557 44.8383 80.172L45.0308 80.0942L71.5812 68.7529C74.3106 67.5867 75.9348 64.7599 75.5809 61.8224L72.1289 33.1601C71.5968 28.7472 66.9761 26.0785 62.8881 27.8241L36.3386 39.165L36.0871 39.279C33.5975 40.4657 32.0899 43.0706 32.3104 45.8272L32.3367 46.0952L35.7901 74.7591Z" fill="#2E6740"/>
<path d="M44.9716 83.2297C39.1278 85.521 32.643 81.6864 31.8859 75.4036L28.1862 44.7037C28.1844 44.6892 28.185 44.6745 28.1835 44.66C27.7071 40.5477 29.9062 36.6135 33.6092 34.8481C33.6249 34.8406 33.6411 34.8334 33.6569 34.8262L33.9266 34.7044C33.9418 34.6976 33.9574 34.6905 33.9727 34.684L62.4082 22.5374C68.319 20.0134 74.9993 23.8696 75.7689 30.2504L75.7691 30.2514L79.4676 60.9505C79.9792 65.1974 77.6297 69.2845 73.6823 70.971L45.2468 83.1175L45.2104 83.1324L45.0045 83.2168L44.9716 83.2297ZM68.5388 61.321L65.1518 33.2146L39.1167 44.3358L42.5034 72.4413L68.5388 61.321ZM50.7076 66.7207C47.3982 68.134 44.1901 64.5215 45.9906 61.4019L45.9904 61.4009L57.3338 41.7536C59.1343 38.6359 63.8666 39.6047 64.2982 43.1783L64.2985 43.1793L65.9938 57.2563L66.0179 57.5652C66.0759 59.1026 65.1837 60.5362 63.7464 61.1503L50.7076 66.7207Z" fill="#251917" stroke="#251917" stroke-width="5" stroke-linejoin="round"/>
<path fill-rule="evenodd" clip-rule="evenodd" d="M67.4337 31.2554L71.1317 61.9543C71.198 62.5045 70.8936 63.0328 70.3841 63.2505L41.9487 75.3967C41.1843 75.7232 40.3203 75.2244 40.2209 74.3992L36.5219 43.6996C36.4556 43.1495 36.7609 42.6217 37.2705 42.4041L65.7059 30.2578C66.4702 29.9315 67.3342 30.4303 67.4337 31.2554ZM59.4984 43.0037C60.0975 41.9663 61.6726 42.2884 61.8162 43.4777L63.5119 57.5556C63.5782 58.1057 63.2738 58.634 62.7642 58.8517L49.7254 64.4211C48.6236 64.8918 47.5563 63.6887 48.1553 62.651L59.4984 43.0037Z" fill="#EEEBE3"/>
</svg>
