<svg xmlns="http://www.w3.org/2000/svg" viewBox="0 0 200 260" role="img" aria-label="GREEN">
  <rect width="200" height="260" fill="#fdf8f1"/>
  <g>
    <rect x="82" y="18" width="36" height="20" rx="3" fill="#3a2f1f"/>
    <rect x="70" y="38" width="60" height="22" rx="4" fill="#5c4a2f"/>
    <path d="M60 72 Q60 60 80 58 L120 58 Q140 60 140 72 L140 220 Q140 244 100 244 Q60 244 60 220 Z" fill="#6aa63a"/>
    <path d="M70 84 Q70 78 82 76 L118 76 Q130 78 130 84 L130 216 Q130 232 100 232 Q70 232 70 216 Z" fill="#ffffff" opacity="0.18"/>
    <rect x="72" y="128" width="56" height="44" rx="4" fill="#fdf8f1" opacity="0.92"/>
    <text x="100" y="148" font-family="Georgia,serif" font-size="10" text-anchor="middle" fill="#1b1b1b">JUICEBAR</text>
    <text x="100" y="164" font-family="Georgia,serif" font-size="8" text-anchor="middle" fill="#365a17">GREEN</text>
  </g>
</svg>
